ModelForces
version=1
nRows=4
nColumns=203
inDegrees=no

This file contains the forces exerted on a model during a simulation.

A force is a generalized force, meaning that it can be either a force (N) or a torque (Nm).

Units are S.I. units (second, meters, Newtons, ...)
Angles are in degrees.

endheader
time	glut_med1_r	glut_med2_r	glut_med3_r	glut_min1_r	glut_min2_r	glut_min3_r	semimem_r	semiten_r	bifemlh_r	bifemsh_r	sar_r	add_long_r	add_brev_r	add_mag1_r	add_mag2_r	add_mag3_r	tfl_r	pect_r	grac_r	glut_max1_r	glut_max2_r	glut_max3_r	iliacus_r	psoas_r	quad_fem_r	gem_r	peri_r	rect_fem_r	vas_med_r	vas_int_r	vas_lat_r	med_gas_r	lat_gas_r	soleus_r	tib_post_r	flex_dig_r	flex_hal_r	tib_ant_r	per_brev_r	per_long_r	per_tert_r	ext_dig_r	ext_hal_r	glut_med1_l	glut_med2_l	glut_med3_l	glut_min1_l	glut_min2_l	glut_min3_l	semimem_l	semiten_l	bifemlh_l	bifemsh_l	sar_l	add_long_l	add_brev_l	add_mag1_l	add_mag2_l	add_mag3_l	tfl_l	pect_l	grac_l	glut_max1_l	glut_max2_l	glut_max3_l	iliacus_l	psoas_l	quad_fem_l	gem_l	peri_l	rect_fem_l	vas_med_l	vas_int_l	vas_lat_l	med_gas_l	lat_gas_l	soleus_l	tib_post_l	flex_dig_l	flex_hal_l	tib_ant_l	per_brev_l	per_long_l	per_tert_l	ext_dig_l	ext_hal_l	ercspn_r	ercspn_l	intobl_r	intobl_l	extobl_r	extobl_l	femur_lat_meniscii_l.femur_lat_l.force.X	femur_lat_meniscii_l.femur_lat_l.force.Y	femur_lat_meniscii_l.femur_lat_l.force.Z	femur_lat_meniscii_l.femur_lat_l.torque.X	femur_lat_meniscii_l.femur_lat_l.torque.Y	femur_lat_meniscii_l.femur_lat_l.torque.Z	femur_lat_meniscii_l.meniscus_lat_l.force.X	femur_lat_meniscii_l.meniscus_lat_l.force.Y	femur_lat_meniscii_l.meniscus_lat_l.force.Z	femur_lat_meniscii_l.meniscus_lat_l.torque.X	femur_lat_meniscii_l.meniscus_lat_l.torque.Y	femur_lat_meniscii_l.meniscus_lat_l.torque.Z	femur_med_meniscii_l.femur_med_l.force.X	femur_med_meniscii_l.femur_med_l.force.Y	femur_med_meniscii_l.femur_med_l.force.Z	femur_med_meniscii_l.femur_med_l.torque.X	femur_med_meniscii_l.femur_med_l.torque.Y	femur_med_meniscii_l.femur_med_l.torque.Z	femur_med_meniscii_l.meniscus_med_l.force.X	femur_med_meniscii_l.meniscus_med_l.force.Y	femur_med_meniscii_l.meniscus_med_l.force.Z	femur_med_meniscii_l.meniscus_med_l.torque.X	femur_med_meniscii_l.meniscus_med_l.torque.Y	femur_med_meniscii_l.meniscus_med_l.torque.Z	femur_lat_meniscii_r.femur_lat_r.force.X	femur_lat_meniscii_r.femur_lat_r.force.Y	femur_lat_meniscii_r.femur_lat_r.force.Z	femur_lat_meniscii_r.femur_lat_r.torque.X	femur_lat_meniscii_r.femur_lat_r.torque.Y	femur_lat_meniscii_r.femur_lat_r.torque.Z	femur_lat_meniscii_r.meniscus_lat_r.force.X	femur_lat_meniscii_r.meniscus_lat_r.force.Y	femur_lat_meniscii_r.meniscus_lat_r.force.Z	femur_lat_meniscii_r.meniscus_lat_r.torque.X	femur_lat_meniscii_r.meniscus_lat_r.torque.Y	femur_lat_meniscii_r.meniscus_lat_r.torque.Z	femur_med_meniscii_r.femur_med_r.force.X	femur_med_meniscii_r.femur_med_r.force.Y	femur_med_meniscii_r.femur_med_r.force.Z	femur_med_meniscii_r.femur_med_r.torque.X	femur_med_meniscii_r.femur_med_r.torque.Y	femur_med_meniscii_r.femur_med_r.torque.Z	femur_med_meniscii_r.meniscus_med_r.force.X	femur_med_meniscii_r.meniscus_med_r.force.Y	femur_med_meniscii_r.meniscus_med_r.force.Z	femur_med_meniscii_r.meniscus_med_r.torque.X	femur_med_meniscii_r.meniscus_med_r.torque.Y	femur_med_meniscii_r.meniscus_med_r.torque.Z	femur_med_tibia_l.tibia_upper_l.force.X	femur_med_tibia_l.tibia_upper_l.force.Y	femur_med_tibia_l.tibia_upper_l.force.Z	femur_med_tibia_l.tibia_upper_l.torque.X	femur_med_tibia_l.tibia_upper_l.torque.Y	femur_med_tibia_l.tibia_upper_l.torque.Z	femur_med_tibia_l.femur_med_l.force.X	femur_med_tibia_l.femur_med_l.force.Y	femur_med_tibia_l.femur_med_l.force.Z	femur_med_tibia_l.femur_med_l.torque.X	femur_med_tibia_l.femur_med_l.torque.Y	femur_med_tibia_l.femur_med_l.torque.Z	femur_lat_tibia_l.tibia_upper_l.force.X	femur_lat_tibia_l.tibia_upper_l.force.Y	femur_lat_tibia_l.tibia_upper_l.force.Z	femur_lat_tibia_l.tibia_upper_l.torque.X	femur_lat_tibia_l.tibia_upper_l.torque.Y	femur_lat_tibia_l.tibia_upper_l.torque.Z	femur_lat_tibia_l.femur_lat_l.force.X	femur_lat_tibia_l.femur_lat_l.force.Y	femur_lat_tibia_l.femur_lat_l.force.Z	femur_lat_tibia_l.femur_lat_l.torque.X	femur_lat_tibia_l.femur_lat_l.torque.Y	femur_lat_tibia_l.femur_lat_l.torque.Z	femur_med_tibia_r.tibia_upper_r.force.X	femur_med_tibia_r.tibia_upper_r.force.Y	femur_med_tibia_r.tibia_upper_r.force.Z	femur_med_tibia_r.tibia_upper_r.torque.X	femur_med_tibia_r.tibia_upper_r.torque.Y	femur_med_tibia_r.tibia_upper_r.torque.Z	femur_med_tibia_r.femur_med_r.force.X	femur_med_tibia_r.femur_med_r.force.Y	femur_med_tibia_r.femur_med_r.force.Z	femur_med_tibia_r.femur_med_r.torque.X	femur_med_tibia_r.femur_med_r.torque.Y	femur_med_tibia_r.femur_med_r.torque.Z	femur_lat_tibia_r.tibia_upper_r.force.X	femur_lat_tibia_r.tibia_upper_r.force.Y	femur_lat_tibia_r.tibia_upper_r.force.Z	femur_lat_tibia_r.tibia_upper_r.torque.X	femur_lat_tibia_r.tibia_upper_r.torque.Y	femur_lat_tibia_r.tibia_upper_r.torque.Z	femur_lat_tibia_r.femur_lat_r.force.X	femur_lat_tibia_r.femur_lat_r.force.Y	femur_lat_tibia_r.femur_lat_r.force.Z	femur_lat_tibia_r.femur_lat_r.torque.X	femur_lat_tibia_r.femur_lat_r.torque.Y	femur_lat_tibia_r.femur_lat_r.torque.Z	aACL_R	pACL_R	aPCL_R	pPCL_R	aMCL_R	mMCL_R	pMCL_R	aLCL_R	mLCL_R	pLCL_R	aPCL_L	pPCL_L	aMCL_L	aLCL_L
      0.12377012	     14.30722647	     10.26888625	     11.07119638	      4.70233441	      5.41062514	      6.04348672	     88.05911100	    151.39483511	    130.99760046	    276.31224773	    126.97790312	     10.24374136	      7.28498511	      5.27446543	      4.49542228	      7.68378007	      5.59967816	      3.97488795	     95.98079450	      6.63756322	     10.10152765	      7.61377508	     31.10936691	     22.59142376	      6.49378791	      4.24523663	      8.77339438	     42.10786198	     35.72331557	     37.31428910	     49.21374235	      0.00000000	      0.00000000	      0.00000000	      0.00000000	      0.00000000	      0.00000000	     39.27729827	      7.75362633	      7.93937808	     32.52340857	     28.63413503	      6.66803130	     14.30722647	     10.26888625	     11.07119638	      4.70233441	      5.41062514	      6.04348672	     18.05625188	      7.70177877	     15.59947587	     12.92841456	      2.68056854	     10.24374136	      7.28498511	      5.27446543	      4.49542228	      7.68378007	      6.38986219	      3.97488795	      2.77673636	      6.63756322	     10.10152765	      7.61377508	     31.10936691	     22.59142376	      6.49378791	      4.24523663	      8.77339438	     21.51302532	     12.14990788	     14.08061869	     15.12505977	     31.28688464	     14.54843008	     66.79504683	     57.55894137	      7.13365800	      6.99935057	     16.73617516	      9.03459066	     22.58300031	      3.49039922	     11.03012620	      3.44241063	     44.28100240	     44.28100240	     16.70583584	     16.70583584	     33.78330384	     33.78330384	      2.76307435	     50.99597937	     -9.56042239	      5.21997485	     -0.02578839	      1.48581788	     -2.76307435	    -50.99597937	      9.56042239	     -1.74637766	      0.02558040	     -0.48301696	     -3.31599387	     20.97615968	     -3.40468921	      0.94473225	     -0.02138609	     -1.00501789	      3.31599387	    -20.97615968	      3.40468921	      0.28075727	      0.00368718	     -0.29758878	    187.63283689	    177.03857528	      9.83651322	     -8.15251581	      4.50471516	     75.20130961	   -187.63283689	   -177.03857528	     -9.83651322	      5.06972115	     -5.39706537	     -0.33596867	    416.69241298	    654.16217671	     19.31424846	      6.79298311	     -8.59772899	    163.47989632	   -416.69241298	   -654.16217671	    -19.31424846	    -11.64528848	      6.65648261	      6.95431946	      0.00000000	      0.00000000	      0.00000000	      0.00000000	      0.00000000	      0.00000000	      0.00000000	      0.00000000	      0.00000000	      0.00000000	      0.00000000	      0.00000000	      0.00000000	      0.00000000	      0.00000000	      0.00000000	      0.00000000	      0.00000000	      0.00000000	      0.00000000	      0.00000000	      0.00000000	      0.00000000	      0.00000000	    -60.64678311	   -248.62595832	     66.43394988	     -5.26008312	      2.25656025	      3.70949730	     60.64678311	    248.62595832	    -66.43394988	     31.73860506	     -1.43161514	     23.54975718	      0.00000000	      0.00000000	      0.00000000	      0.00000000	      0.00000000	      0.00000000	      0.00000000	      0.00000000	      0.00000000	      0.00000000	      0.00000000	      0.00000000	      0.00000000	      0.00000000	    465.69970789	    264.85367449	     45.61915902	      0.00000000	      0.00000000	      0.00000000	      0.00000000	      0.00000000	      0.00000000	      0.00000000	      0.00000001	      0.00000000
      0.12399633	     14.28675683	     10.25500248	     11.05606213	      4.69622096	      5.40389987	      6.03485576	     87.56315389	    151.02369805	    131.14006171	    276.40404600	    126.83251807	     10.22974389	      7.27560047	      5.26735322	      4.48923133	      7.67260111	      5.57061792	      3.96968247	     95.80165678	      6.62853342	     10.08776283	      7.60326588	     31.08353181	     22.56198118	      6.48516928	      4.24095526	      8.76003642	     42.22764156	     35.72260077	     37.32748349	     49.24864373	      0.00000000	      0.00000000	      0.00000000	      0.00000000	      0.00000000	      0.00000000	     39.30287814	      7.67168707	      7.89295666	     31.89060687	     28.68895037	      6.67732678	     14.28675683	     10.25500248	     11.05606213	      4.69622096	      5.40389987	      6.03485576	     18.02904146	      7.69081710	     15.57605382	     12.91123178	      2.67709952	     10.22974389	      7.27560047	      5.26735322	      4.48923133	      7.67260111	      6.38291263	      3.96968247	      2.77308168	      6.62853342	     10.08776283	      7.60326588	     31.08353181	     22.56198118	      6.48516928	      4.24095526	      8.76003642	     21.48081306	     12.13296849	     14.06073760	     15.10366331	     31.23939862	     14.52628022	     66.69302592	     57.51344753	      7.12270418	      6.98856712	     16.71136271	      9.02082453	     22.55357995	      3.48586673	     11.01323988	      3.43715983	     44.22330975	     44.22330975	     16.68250177	     16.68250177	     33.76192826	     33.76192826	      2.76307435	     50.99597937	     -9.56042239	      5.21997485	     -0.02578839	      1.48581788	     -2.76307435	    -50.99597937	      9.56042239	     -1.74637766	      0.02558040	     -0.48301696	     -3.31599387	     20.97615968	     -3.40468921	      0.94473225	     -0.02138609	     -1.00501789	      3.31599387	    -20.97615968	      3.40468921	      0.28075727	      0.00368718	     -0.29758878	    191.45265066	    179.45930474	     10.25012003	     -8.37873644	      4.59940607	     76.74320285	   -191.45265066	   -179.45930474	    -10.25012003	      5.14681601	     -5.51435763	     -0.35811655	    417.90337753	    650.86204604	     20.72095933	      6.13066377	     -8.61290372	    163.98056213	   -417.90337753	   -650.86204604	    -20.72095933	    -11.53486968	      6.64227122	      6.91141946	      0.00000000	      0.00000000	      0.00000000	      0.00000000	      0.00000000	      0.00000000	      0.00000000	      0.00000000	      0.00000000	      0.00000000	      0.00000000	      0.00000000	      0.00000000	      0.00000000	      0.00000000	      0.00000000	      0.00000000	      0.00000000	      0.00000000	      0.00000000	      0.00000000	      0.00000000	      0.00000000	      0.00000000	    -61.25655820	   -249.08752416	     66.92646638	     -5.26583018	      2.27759327	      3.72244402	     61.25655820	    249.08752416	    -66.92646638	     31.93760136	     -1.44373630	     23.79319175	      0.00000000	      0.00000000	      0.00000000	      0.00000000	      0.00000000	      0.00000000	      0.00000000	      0.00000000	      0.00000000	      0.00000000	      0.00000000	      0.00000000	      0.00000000	      0.00000000	    467.98728690	    266.47449085	     45.93302980	      0.00000000	      0.00000000	      0.00000000	      0.00000000	      0.00000000	      0.00000000	      0.00000000	      0.00000001	      0.00000000
      0.12423741	     14.26501140	     10.24025338	     11.03998473	      4.68972627	      5.39675544	      6.02568686	     87.04029585	    150.64275497	    131.30141032	    276.56543084	    126.69054271	     10.21487412	      7.26563047	      5.25979778	      4.48265465	      7.66072525	      5.54036281	      3.96415243	     95.62201693	      6.61894101	     10.07314037	      7.59210189	     31.05608826	     22.53070502	      6.47601336	      4.23640743	      8.74584298	     42.35719827	     35.72176595	     37.34142288	     49.28575865	      0.00000000	      0.00000000	      0.00000000	      0.00000000	      0.00000000	      0.00000000	     39.33015574	      7.58238092	      7.84210154	     33.76816674	     28.74745145	      6.68730178	     14.26501140	     10.24025338	     11.03998473	      4.68972627	      5.39675544	      6.02568686	     18.00013043	      7.67917230	     15.55116932	     12.89297787	      2.67341414	     10.21487412	      7.26563047	      5.25979778	      4.48265465	      7.66072525	      6.37552989	      3.96415243	      2.76919914	      6.61894101	     10.07314037	      7.59210189	     31.05608826	     22.53070502	      6.47601336	      4.23640743	      8.74584298	     21.44659011	     12.11497414	     14.03961825	     15.08093459	     31.18893814	     14.50274318	     66.58462458	     57.46511756	      7.11106138	      6.97710625	     16.68500234	      9.00619859	     22.52232415	      3.48105198	     10.99530162	      3.43158245	     44.16201940	     44.16201940	     16.65771361	     16.65771361	     33.73922237	     33.73922237	      2.76307435	     50.99597937	     -9.56042239	      5.21997485	     -0.02578839	      1.48581788	     -2.76307435	    -50.99597937	      9.56042239	     -1.74637766	      0.02558040	     -0.48301696	     -3.31599387	     20.97615968	     -3.40468921	      0.94473225	     -0.02138609	     -1.00501789	      3.31599387	    -20.97615968	      3.40468921	      0.28075727	      0.00368718	     -0.29758878	    195.48171503	    182.07608847	     10.56963282	     -8.57005976	      4.69787105	     78.36826980	   -195.48171503	   -182.07608847	    -10.56963282	      5.22589395	     -5.63484328	     -0.37847378	    419.84177589	    649.25138327	     20.02796029	      6.36823331	     -8.63983562	    164.75921893	   -419.84177589	   -649.25138327	    -20.02796029	    -11.51158814	      6.67051466	      6.89977871	      0.00000000	      0.00000000	      0.00000000	      0.00000000	      0.00000000	      0.00000000	      0.00000000	      0.00000000	      0.00000000	      0.00000000	      0.00000000	      0.00000000	      0.00000000	      0.00000000	      0.00000000	      0.00000000	      0.00000000	      0.00000000	      0.00000000	      0.00000000	      0.00000000	      0.00000000	      0.00000000	      0.00000000	    -61.70085553	   -249.65070542	     67.51698410	     -5.27617336	      2.29940229	      3.74449341	     61.70085553	    249.65070542	    -67.51698410	     32.17940301	     -1.45413373	     23.96666999	      0.00000000	      0.00000000	      0.00000000	      0.00000000	      0.00000000	      0.00000000	      0.00000000	      0.00000000	      0.00000000	      0.00000000	      0.00000000	      0.00000000	      0.00000000	      0.00000000	    470.52179304	    268.42352681	     46.31424142	      0.00000000	      0.00000000	      0.00000000	      0.00000000	      0.00000000	      0.00000000	      0.00000000	      0.00000001	      0.00000000
      0.12444398	     14.24643580	     10.22765423	     11.02625103	      4.68417813	      5.39065245	      6.01785453	     86.59673477	    150.32819851	    131.44742528	    276.74950027	    126.57855217	     10.20217199	      7.25711344	      5.25334373	      4.47703677	      7.65058039	      5.51509162	      3.95942840	     95.47677004	      6.61074705	     10.06064964	      7.58256544	     31.03264658	     22.50398919	      6.46819199	      4.23252284	      8.73371613	     42.46949139	     35.72086560	     37.35307789	     49.31699803	      0.00000000	      0.00000000	      0.00000000	      0.00000000	      0.00000000	      0.00000000	     39.35354454	      7.50433032	      7.79745998	     29.96827508	     28.79773842	      6.69591656	     14.24643580	     10.22765423	     11.02625103	      4.68417813	      5.39065245	      6.01785453	     17.97542991	      7.66922501	     15.52991009	     12.87738468	      2.67026586	     10.20217199	      7.25711344	      5.25334373	      4.47703677	      7.65058039	      6.36922329	      3.95942840	      2.76588248	      6.61074705	     10.06064964	      7.58256544	     31.03264658	     22.50398919	      6.46819199	      4.23252284	      8.73371613	     21.41735334	     12.09960348	     14.02157816	     15.06152010	     31.14582117	     14.48263170	     66.49200702	     57.42383210	      7.10111062	      6.96731165	     16.66248332	      8.99370318	     22.49562302	      3.47693925	     10.97997865	      3.42681864	     44.10966173	     44.10966173	     16.63653900	     16.63653900	     33.71982792	     33.71982792	      2.76307435	     50.99597937	     -9.56042239	      5.21997485	     -0.02578839	      1.48581788	     -2.76307435	    -50.99597937	      9.56042239	     -1.74637766	      0.02558040	     -0.48301696	     -3.31599387	     20.97615968	     -3.40468921	      0.94473225	     -0.02138609	     -1.00501789	      3.31599387	    -20.97615968	      3.40468921	      0.28075727	      0.00368718	     -0.29758878	    198.75927225	    184.39010352	     11.05622110	     -8.82304926	      4.78042246	     79.68746855	   -198.75927225	   -184.39010352	    -11.05622110	      5.30124943	     -5.73904290	     -0.38817769	    416.46947015	    645.98361713	     19.48204302	      6.50929772	     -8.53989035	    163.37276441	   -416.46947015	   -645.98361713	    -19.48204302	    -11.45496669	      6.59076333	      6.98022445	      0.00000000	      0.00000000	      0.00000000	      0.00000000	      0.00000000	      0.00000000	      0.00000000	      0.00000000	      0.00000000	      0.00000000	      0.00000000	      0.00000000	      0.00000000	      0.00000000	      0.00000000	      0.00000000	      0.00000000	      0.00000000	      0.00000000	      0.00000000	      0.00000000	      0.00000000	      0.00000000	      0.00000000	    -62.01469912	   -249.82205539	     67.84637375	     -5.27488367	      2.31293933	      3.75847352	     62.01469912	    249.82205539	    -67.84637375	     32.30743249	     -1.46043574	     24.08958193	      0.00000000	      0.00000000	      0.00000000	      0.00000000	      0.00000000	      0.00000000	      0.00000000	      0.00000000	      0.00000000	      0.00000000	      0.00000000	      0.00000000	      0.00000000	      0.00000000	    472.70537148	    270.08690430	     46.69129023	      0.00000000	      0.00000000	      0.00000000	      0.00000000	      0.00000000	      0.00000000	      0.00000000	      0.00000001	      0.00000000
